<mxfile host="app.diagrams.net" modified="2024-06-02T19:09:38.460Z" agent="Mozilla/5.0 (Windows NT 10.0; Win64; x64) AppleWebKit/537.36 (KHTML, like Gecko) Chrome/125.0.0.0 Safari/537.36" etag="IRByHz60MD7vuTfmy2kx" version="24.4.13" type="device">
  <diagram name="Page-1" id="luediHqik0dXqKViBkO_">
    <mxGraphModel dx="600" dy="298" grid="1" gridSize="10" guides="1" tooltips="1" connect="1" arrows="1" fold="1" page="1" pageScale="1" pageWidth="850" pageHeight="1100" math="0" shadow="0">
      <root>
        <mxCell id="0" />
        <mxCell id="1" parent="0" />
        <mxCell id="I6jlp43hXR9_M5Y7e2dG-6" value="" style="image;points=[];aspect=fixed;html=1;align=center;shadow=0;dashed=0;image=img/lib/allied_telesis/computer_and_terminals/Personal_Computer_with_Server.svg;" parent="1" vertex="1">
          <mxGeometry x="45.84" y="483.8" width="110" height="110" as="geometry" />
        </mxCell>
        <mxCell id="I6jlp43hXR9_M5Y7e2dG-7" value="" style="verticalLabelPosition=bottom;sketch=0;aspect=fixed;html=1;verticalAlign=top;strokeColor=none;align=center;outlineConnect=0;shape=mxgraph.citrix.dns_server;" parent="1" vertex="1">
          <mxGeometry x="70.84" y="685.6600000000001" width="66.16" height="80" as="geometry" />
        </mxCell>
        <mxCell id="I6jlp43hXR9_M5Y7e2dG-16" value="Client" style="text;strokeColor=none;align=center;fillColor=none;html=1;verticalAlign=middle;whiteSpace=wrap;rounded=0;" parent="1" vertex="1">
          <mxGeometry x="73.92" y="592.8" width="60" height="25" as="geometry" />
        </mxCell>
        <mxCell id="I6jlp43hXR9_M5Y7e2dG-29" style="edgeStyle=none;rounded=0;orthogonalLoop=1;jettySize=auto;html=1;" parent="1" edge="1">
          <mxGeometry relative="1" as="geometry">
            <mxPoint x="620" y="526" as="targetPoint" />
            <mxPoint x="170" y="525.8" as="sourcePoint" />
          </mxGeometry>
        </mxCell>
        <mxCell id="I6jlp43hXR9_M5Y7e2dG-30" style="edgeStyle=none;rounded=0;orthogonalLoop=1;jettySize=auto;html=1;" parent="1" edge="1">
          <mxGeometry relative="1" as="geometry">
            <mxPoint x="170" y="543.8" as="targetPoint" />
            <mxPoint x="620" y="544" as="sourcePoint" />
          </mxGeometry>
        </mxCell>
        <mxCell id="I6jlp43hXR9_M5Y7e2dG-19" value="DNS Server" style="text;strokeColor=none;align=center;fillColor=none;html=1;verticalAlign=middle;whiteSpace=wrap;rounded=0;" parent="1" vertex="1">
          <mxGeometry x="69" y="766.6600000000001" width="60" height="30" as="geometry" />
        </mxCell>
        <mxCell id="I6jlp43hXR9_M5Y7e2dG-31" value="&lt;b&gt;&amp;nbsp; foobar.com Linux Server 1&lt;/b&gt;" style="points=[[0,0],[0.25,0],[0.5,0],[0.75,0],[1,0],[1,0.25],[1,0.5],[1,0.75],[1,1],[0.75,1],[0.5,1],[0.25,1],[0,1],[0,0.75],[0,0.5],[0,0.25]];outlineConnect=0;gradientColor=none;html=1;whiteSpace=wrap;fontSize=12;fontStyle=0;container=1;pointerEvents=0;collapsible=0;recursiveResize=0;shape=mxgraph.aws4.group;grIcon=mxgraph.aws4.group_on_premise;strokeColor=#7D8998;fillColor=none;verticalAlign=top;align=left;spacingLeft=30;fontColor=#5A6C86;dashed=0;" parent="1" vertex="1">
          <mxGeometry x="896" y="30" width="320" height="470" as="geometry" />
        </mxCell>
        <mxCell id="YbH-L_zn-IKvUqhJYya7-3" value="" style="image;aspect=fixed;html=1;points=[];align=center;fontSize=12;image=img/lib/azure2/management_governance/Monitor.svg;" vertex="1" parent="I6jlp43hXR9_M5Y7e2dG-31">
          <mxGeometry x="223" y="369.13" width="64" height="64" as="geometry" />
        </mxCell>
        <mxCell id="YbH-L_zn-IKvUqhJYya7-8" value="Monitoring client" style="text;strokeColor=none;align=center;fillColor=none;html=1;verticalAlign=middle;whiteSpace=wrap;rounded=0;" vertex="1" parent="I6jlp43hXR9_M5Y7e2dG-31">
          <mxGeometry x="220" y="439.2699999999999" width="70" height="20" as="geometry" />
        </mxCell>
        <mxCell id="I6jlp43hXR9_M5Y7e2dG-36" value="&lt;table&gt;&lt;tbody&gt;&lt;tr&gt;&lt;td&gt;DNS Database&lt;hr&gt;&lt;b&gt;&lt;u&gt;Type&lt;span style=&quot;white-space: pre;&quot;&gt;&#x9;&lt;/span&gt;Domanin Name&lt;span style=&quot;white-space: pre;&quot;&gt;&#x9;&lt;/span&gt;IP Address&lt;/u&gt;&lt;/b&gt;&lt;/td&gt;&lt;td&gt;&lt;br&gt;&lt;/td&gt;&lt;td&gt;&lt;br&gt;&lt;/td&gt;&lt;/tr&gt;&lt;tr&gt;&lt;td&gt;A&lt;span style=&quot;white-space: pre;&quot;&gt;&#x9;&lt;/span&gt;&lt;span style=&quot;white-space: pre;&quot;&gt;&#x9;&lt;/span&gt;foobar.com&lt;span style=&quot;white-space: pre;&quot;&gt;&#x9;&lt;/span&gt;&lt;span style=&quot;white-space: pre;&quot;&gt;&#x9;&lt;/span&gt;&lt;span style=&quot;color: rgb(199, 37, 78); font-family: Menlo, Monaco, Consolas, &amp;quot;Courier New&amp;quot;, monospace; font-size: 12.6px; background-color: rgb(249, 242, 244);&quot;&gt;8.8.8.8&lt;/span&gt;&#x9;&lt;br&gt;&lt;/td&gt;&lt;td&gt;&lt;br&gt;&lt;/td&gt;&lt;td&gt;&lt;br&gt;&lt;/td&gt;&lt;/tr&gt;&lt;tr&gt;&lt;td&gt;CNAME&lt;span style=&quot;white-space: pre;&quot;&gt;&#x9;&lt;/span&gt;www.foobar.com&lt;span style=&quot;white-space: pre;&quot;&gt;&#x9;&lt;/span&gt;foobar.com&lt;/td&gt;&lt;td&gt;&lt;br&gt;&lt;/td&gt;&lt;td&gt;&lt;br&gt;&lt;/td&gt;&lt;/tr&gt;&lt;/tbody&gt;&lt;/table&gt;" style="text;strokeColor=none;align=left;fillColor=none;html=1;verticalAlign=middle;whiteSpace=wrap;rounded=0;" parent="1" vertex="1">
          <mxGeometry x="40" y="807.9300000000001" width="245" height="80" as="geometry" />
        </mxCell>
        <mxCell id="I6jlp43hXR9_M5Y7e2dG-39" value="Application Server" style="text;strokeColor=none;align=center;fillColor=none;html=1;verticalAlign=middle;whiteSpace=wrap;rounded=0;" parent="1" vertex="1">
          <mxGeometry x="916" y="315" width="106.64" height="18" as="geometry" />
        </mxCell>
        <mxCell id="TjRENbPCBX0Kt2JWYsnZ-2" value="" style="sketch=0;outlineConnect=0;fontColor=#232F3E;gradientColor=none;fillColor=#0c4688;strokeColor=none;dashed=0;verticalLabelPosition=bottom;verticalAlign=top;align=center;html=1;fontSize=12;fontStyle=0;aspect=fixed;pointerEvents=1;shape=mxgraph.aws4.source_code;" parent="1" vertex="1">
          <mxGeometry x="1125.06" y="242" width="51.87" height="71" as="geometry" />
        </mxCell>
        <mxCell id="I6jlp43hXR9_M5Y7e2dG-42" value="" style="image;aspect=fixed;html=1;points=[];align=center;fontSize=12;image=img/lib/azure2/databases/Azure_Database_MySQL_Server.svg;" parent="1" vertex="1">
          <mxGeometry x="940.67" y="400" width="54.2" height="72.27" as="geometry" />
        </mxCell>
        <mxCell id="I6jlp43hXR9_M5Y7e2dG-49" value="MySQL Database" style="text;strokeColor=none;align=center;fillColor=none;html=1;verticalAlign=middle;whiteSpace=wrap;rounded=0;" parent="1" vertex="1">
          <mxGeometry x="920.67" y="477.14" width="100" height="20" as="geometry" />
        </mxCell>
        <mxCell id="TjRENbPCBX0Kt2JWYsnZ-3" value="Code Base" style="text;strokeColor=none;align=center;fillColor=none;html=1;verticalAlign=middle;whiteSpace=wrap;rounded=0;" parent="1" vertex="1">
          <mxGeometry x="1116" y="313" width="70" height="20" as="geometry" />
        </mxCell>
        <mxCell id="TjRENbPCBX0Kt2JWYsnZ-9" style="edgeStyle=none;rounded=0;orthogonalLoop=1;jettySize=auto;html=1;exitX=1;exitY=0.25;exitDx=0;exitDy=0;" parent="1" edge="1">
          <mxGeometry relative="1" as="geometry">
            <mxPoint x="1096" y="280" as="targetPoint" />
            <mxPoint x="1036" y="281.0000000000001" as="sourcePoint" />
          </mxGeometry>
        </mxCell>
        <mxCell id="TjRENbPCBX0Kt2JWYsnZ-10" style="edgeStyle=none;rounded=0;orthogonalLoop=1;jettySize=auto;html=1;" parent="1" edge="1">
          <mxGeometry relative="1" as="geometry">
            <mxPoint x="1036" y="300.0000000000001" as="targetPoint" />
            <mxPoint x="1096" y="300" as="sourcePoint" />
          </mxGeometry>
        </mxCell>
        <mxCell id="I6jlp43hXR9_M5Y7e2dG-47" style="edgeStyle=none;rounded=0;orthogonalLoop=1;jettySize=auto;html=1;" parent="1" edge="1">
          <mxGeometry relative="1" as="geometry">
            <mxPoint x="960" y="171.73000000000002" as="targetPoint" />
            <mxPoint x="960" y="223" as="sourcePoint" />
          </mxGeometry>
        </mxCell>
        <mxCell id="I6jlp43hXR9_M5Y7e2dG-48" style="edgeStyle=none;rounded=0;orthogonalLoop=1;jettySize=auto;html=1;" parent="1" edge="1">
          <mxGeometry relative="1" as="geometry">
            <mxPoint x="979" y="223" as="targetPoint" />
            <mxPoint x="979" y="171.73000000000002" as="sourcePoint" />
          </mxGeometry>
        </mxCell>
        <mxCell id="I6jlp43hXR9_M5Y7e2dG-34" value="" style="sketch=0;aspect=fixed;pointerEvents=1;shadow=0;dashed=0;html=1;strokeColor=none;labelPosition=center;verticalLabelPosition=bottom;verticalAlign=top;align=center;fillColor=#00188D;shape=mxgraph.mscae.enterprise.application_server2" parent="1" vertex="1">
          <mxGeometry x="944" y="233" width="70.52" height="82" as="geometry" />
        </mxCell>
        <mxCell id="TjRENbPCBX0Kt2JWYsnZ-14" style="edgeStyle=none;rounded=0;orthogonalLoop=1;jettySize=auto;html=1;" parent="1" edge="1">
          <mxGeometry relative="1" as="geometry">
            <mxPoint x="956.95" y="340.73" as="targetPoint" />
            <mxPoint x="956.95" y="392" as="sourcePoint" />
          </mxGeometry>
        </mxCell>
        <mxCell id="TjRENbPCBX0Kt2JWYsnZ-15" style="edgeStyle=none;rounded=0;orthogonalLoop=1;jettySize=auto;html=1;" parent="1" edge="1">
          <mxGeometry relative="1" as="geometry">
            <mxPoint x="979.95" y="392" as="targetPoint" />
            <mxPoint x="979.95" y="340.73" as="sourcePoint" />
          </mxGeometry>
        </mxCell>
        <mxCell id="TjRENbPCBX0Kt2JWYsnZ-16" value="" style="sketch=0;aspect=fixed;pointerEvents=1;shadow=0;dashed=0;html=1;strokeColor=none;labelPosition=center;verticalLabelPosition=bottom;verticalAlign=top;align=center;fillColor=#00188D;shape=mxgraph.mscae.enterprise.web_server" parent="1" vertex="1">
          <mxGeometry x="940.27" y="64" width="60.8" height="80" as="geometry" />
        </mxCell>
        <mxCell id="TjRENbPCBX0Kt2JWYsnZ-17" value="Nginx Server" style="text;strokeColor=none;align=center;fillColor=none;html=1;verticalAlign=middle;whiteSpace=wrap;rounded=0;" parent="1" vertex="1">
          <mxGeometry x="916.9300000000001" y="144" width="106.64" height="18" as="geometry" />
        </mxCell>
        <mxCell id="TjRENbPCBX0Kt2JWYsnZ-19" style="edgeStyle=none;rounded=0;orthogonalLoop=1;jettySize=auto;html=1;" parent="1" edge="1">
          <mxGeometry relative="1" as="geometry">
            <mxPoint x="1014.52" y="100.00000000000001" as="targetPoint" />
            <mxPoint x="1146" y="220" as="sourcePoint" />
            <Array as="points">
              <mxPoint x="1146" y="100.00000000000001" />
            </Array>
          </mxGeometry>
        </mxCell>
        <mxCell id="TjRENbPCBX0Kt2JWYsnZ-22" style="edgeStyle=none;rounded=0;orthogonalLoop=1;jettySize=auto;html=1;" parent="1" edge="1">
          <mxGeometry relative="1" as="geometry">
            <mxPoint x="92.06" y="625.6600000000001" as="targetPoint" />
            <mxPoint x="92.06" y="676.9300000000001" as="sourcePoint" />
          </mxGeometry>
        </mxCell>
        <mxCell id="TjRENbPCBX0Kt2JWYsnZ-23" style="edgeStyle=none;rounded=0;orthogonalLoop=1;jettySize=auto;html=1;" parent="1" edge="1">
          <mxGeometry relative="1" as="geometry">
            <mxPoint x="115.06" y="676.9300000000001" as="targetPoint" />
            <mxPoint x="115.06" y="625.6600000000001" as="sourcePoint" />
          </mxGeometry>
        </mxCell>
        <mxCell id="7bQOIMMHuxMf3h_n53OH-1" value="HTTPS Response" style="text;strokeColor=none;align=center;fillColor=none;html=1;verticalAlign=middle;whiteSpace=wrap;rounded=0;" parent="1" vertex="1">
          <mxGeometry x="170" y="552.8" width="100" height="25" as="geometry" />
        </mxCell>
        <mxCell id="7bQOIMMHuxMf3h_n53OH-2" value="HTTPS Request" style="text;strokeColor=none;align=center;fillColor=none;html=1;verticalAlign=middle;whiteSpace=wrap;rounded=0;" parent="1" vertex="1">
          <mxGeometry x="170" y="493.8" width="100" height="25" as="geometry" />
        </mxCell>
        <mxCell id="WhKH9Ss32SUy4Tv57kXH-2" value="&lt;b&gt;&amp;nbsp; foobar.com Linux Server 2&lt;/b&gt;" style="points=[[0,0],[0.25,0],[0.5,0],[0.75,0],[1,0],[1,0.25],[1,0.5],[1,0.75],[1,1],[0.75,1],[0.5,1],[0.25,1],[0,1],[0,0.75],[0,0.5],[0,0.25]];outlineConnect=0;gradientColor=none;html=1;whiteSpace=wrap;fontSize=12;fontStyle=0;container=1;pointerEvents=0;collapsible=0;recursiveResize=0;shape=mxgraph.aws4.group;grIcon=mxgraph.aws4.group_on_premise;strokeColor=#7D8998;fillColor=none;verticalAlign=top;align=left;spacingLeft=30;fontColor=#5A6C86;dashed=0;" parent="1" vertex="1">
          <mxGeometry x="896" y="562.86" width="320" height="470" as="geometry" />
        </mxCell>
        <mxCell id="YbH-L_zn-IKvUqhJYya7-4" value="" style="image;aspect=fixed;html=1;points=[];align=center;fontSize=12;image=img/lib/azure2/management_governance/Monitor.svg;" vertex="1" parent="WhKH9Ss32SUy4Tv57kXH-2">
          <mxGeometry x="220" y="366" width="64" height="64" as="geometry" />
        </mxCell>
        <mxCell id="YbH-L_zn-IKvUqhJYya7-9" value="Monitoring client" style="text;strokeColor=none;align=center;fillColor=none;html=1;verticalAlign=middle;whiteSpace=wrap;rounded=0;" vertex="1" parent="WhKH9Ss32SUy4Tv57kXH-2">
          <mxGeometry x="217" y="437.13999999999993" width="70" height="20" as="geometry" />
        </mxCell>
        <mxCell id="WhKH9Ss32SUy4Tv57kXH-3" value="Application Server" style="text;strokeColor=none;align=center;fillColor=none;html=1;verticalAlign=middle;whiteSpace=wrap;rounded=0;" parent="1" vertex="1">
          <mxGeometry x="916" y="847.86" width="106.64" height="18" as="geometry" />
        </mxCell>
        <mxCell id="WhKH9Ss32SUy4Tv57kXH-4" value="" style="sketch=0;outlineConnect=0;fontColor=#232F3E;gradientColor=none;fillColor=#094386;strokeColor=none;dashed=0;verticalLabelPosition=bottom;verticalAlign=top;align=center;html=1;fontSize=12;fontStyle=0;aspect=fixed;pointerEvents=1;shape=mxgraph.aws4.source_code;" parent="1" vertex="1">
          <mxGeometry x="1125.06" y="774.86" width="51.87" height="71" as="geometry" />
        </mxCell>
        <mxCell id="WhKH9Ss32SUy4Tv57kXH-5" value="" style="image;aspect=fixed;html=1;points=[];align=center;fontSize=12;image=img/lib/azure2/databases/Azure_Database_MySQL_Server.svg;" parent="1" vertex="1">
          <mxGeometry x="940.67" y="932.86" width="54.2" height="72.27" as="geometry" />
        </mxCell>
        <mxCell id="WhKH9Ss32SUy4Tv57kXH-6" value="MySQL Database" style="text;strokeColor=none;align=center;fillColor=none;html=1;verticalAlign=middle;whiteSpace=wrap;rounded=0;" parent="1" vertex="1">
          <mxGeometry x="920.67" y="1009.9999999999999" width="100" height="20" as="geometry" />
        </mxCell>
        <mxCell id="WhKH9Ss32SUy4Tv57kXH-7" value="Code Base" style="text;strokeColor=none;align=center;fillColor=none;html=1;verticalAlign=middle;whiteSpace=wrap;rounded=0;" parent="1" vertex="1">
          <mxGeometry x="1116" y="845.86" width="70" height="20" as="geometry" />
        </mxCell>
        <mxCell id="WhKH9Ss32SUy4Tv57kXH-8" style="edgeStyle=none;rounded=0;orthogonalLoop=1;jettySize=auto;html=1;exitX=1;exitY=0.25;exitDx=0;exitDy=0;" parent="1" edge="1">
          <mxGeometry relative="1" as="geometry">
            <mxPoint x="1096" y="812.86" as="targetPoint" />
            <mxPoint x="1036" y="813.8600000000001" as="sourcePoint" />
          </mxGeometry>
        </mxCell>
        <mxCell id="WhKH9Ss32SUy4Tv57kXH-9" style="edgeStyle=none;rounded=0;orthogonalLoop=1;jettySize=auto;html=1;" parent="1" edge="1">
          <mxGeometry relative="1" as="geometry">
            <mxPoint x="1036" y="832.8600000000001" as="targetPoint" />
            <mxPoint x="1096" y="832.86" as="sourcePoint" />
          </mxGeometry>
        </mxCell>
        <mxCell id="WhKH9Ss32SUy4Tv57kXH-10" style="edgeStyle=none;rounded=0;orthogonalLoop=1;jettySize=auto;html=1;" parent="1" edge="1">
          <mxGeometry relative="1" as="geometry">
            <mxPoint x="960" y="704.59" as="targetPoint" />
            <mxPoint x="960" y="755.86" as="sourcePoint" />
          </mxGeometry>
        </mxCell>
        <mxCell id="WhKH9Ss32SUy4Tv57kXH-11" style="edgeStyle=none;rounded=0;orthogonalLoop=1;jettySize=auto;html=1;" parent="1" edge="1">
          <mxGeometry relative="1" as="geometry">
            <mxPoint x="979" y="755.86" as="targetPoint" />
            <mxPoint x="979" y="704.59" as="sourcePoint" />
          </mxGeometry>
        </mxCell>
        <mxCell id="WhKH9Ss32SUy4Tv57kXH-12" value="" style="sketch=0;aspect=fixed;pointerEvents=1;shadow=0;dashed=0;html=1;strokeColor=none;labelPosition=center;verticalLabelPosition=bottom;verticalAlign=top;align=center;fillColor=#00188D;shape=mxgraph.mscae.enterprise.application_server2" parent="1" vertex="1">
          <mxGeometry x="944" y="765.86" width="70.52" height="82" as="geometry" />
        </mxCell>
        <mxCell id="WhKH9Ss32SUy4Tv57kXH-13" style="edgeStyle=none;rounded=0;orthogonalLoop=1;jettySize=auto;html=1;" parent="1" edge="1">
          <mxGeometry relative="1" as="geometry">
            <mxPoint x="956.95" y="873.59" as="targetPoint" />
            <mxPoint x="956.95" y="924.86" as="sourcePoint" />
          </mxGeometry>
        </mxCell>
        <mxCell id="WhKH9Ss32SUy4Tv57kXH-14" style="edgeStyle=none;rounded=0;orthogonalLoop=1;jettySize=auto;html=1;" parent="1" edge="1">
          <mxGeometry relative="1" as="geometry">
            <mxPoint x="979.95" y="924.86" as="targetPoint" />
            <mxPoint x="979.95" y="873.59" as="sourcePoint" />
          </mxGeometry>
        </mxCell>
        <mxCell id="WhKH9Ss32SUy4Tv57kXH-15" value="" style="sketch=0;aspect=fixed;pointerEvents=1;shadow=0;dashed=0;html=1;strokeColor=none;labelPosition=center;verticalLabelPosition=bottom;verticalAlign=top;align=center;fillColor=#00188D;shape=mxgraph.mscae.enterprise.web_server" parent="1" vertex="1">
          <mxGeometry x="940.27" y="596.86" width="60.8" height="80" as="geometry" />
        </mxCell>
        <mxCell id="WhKH9Ss32SUy4Tv57kXH-16" value="Nginx Server" style="text;strokeColor=none;align=center;fillColor=none;html=1;verticalAlign=middle;whiteSpace=wrap;rounded=0;" parent="1" vertex="1">
          <mxGeometry x="916.9300000000001" y="676.86" width="106.64" height="18" as="geometry" />
        </mxCell>
        <mxCell id="WhKH9Ss32SUy4Tv57kXH-18" style="edgeStyle=none;rounded=0;orthogonalLoop=1;jettySize=auto;html=1;" parent="1" edge="1">
          <mxGeometry relative="1" as="geometry">
            <mxPoint x="1014.52" y="632.86" as="targetPoint" />
            <mxPoint x="1146" y="752.86" as="sourcePoint" />
            <Array as="points">
              <mxPoint x="1146" y="632.86" />
            </Array>
          </mxGeometry>
        </mxCell>
        <mxCell id="WhKH9Ss32SUy4Tv57kXH-23" value="" style="outlineConnect=0;dashed=0;verticalLabelPosition=bottom;verticalAlign=top;align=center;html=1;shape=mxgraph.aws3.application_load_balancer;fillColor=#0a26b2;gradientColor=none;direction=north;" parent="1" vertex="1">
          <mxGeometry x="635" y="486" width="90" height="90" as="geometry" />
        </mxCell>
        <mxCell id="WhKH9Ss32SUy4Tv57kXH-24" style="edgeStyle=none;rounded=0;orthogonalLoop=1;jettySize=auto;html=1;" parent="1" edge="1">
          <mxGeometry relative="1" as="geometry">
            <mxPoint x="880" y="256" as="targetPoint" />
            <mxPoint x="665" y="480" as="sourcePoint" />
            <Array as="points">
              <mxPoint x="665" y="256" />
            </Array>
          </mxGeometry>
        </mxCell>
        <mxCell id="WhKH9Ss32SUy4Tv57kXH-25" style="edgeStyle=none;rounded=0;orthogonalLoop=1;jettySize=auto;html=1;" parent="1" edge="1">
          <mxGeometry relative="1" as="geometry">
            <mxPoint x="685" y="480" as="targetPoint" />
            <mxPoint x="880" y="274" as="sourcePoint" />
            <Array as="points">
              <mxPoint x="685" y="274" />
            </Array>
          </mxGeometry>
        </mxCell>
        <mxCell id="WhKH9Ss32SUy4Tv57kXH-26" style="edgeStyle=none;rounded=0;orthogonalLoop=1;jettySize=auto;html=1;" parent="1" edge="1">
          <mxGeometry relative="1" as="geometry">
            <mxPoint x="890" y="796" as="targetPoint" />
            <mxPoint x="695" y="630" as="sourcePoint" />
            <Array as="points">
              <mxPoint x="695" y="796" />
            </Array>
          </mxGeometry>
        </mxCell>
        <mxCell id="WhKH9Ss32SUy4Tv57kXH-27" style="edgeStyle=none;rounded=0;orthogonalLoop=1;jettySize=auto;html=1;" parent="1" edge="1">
          <mxGeometry relative="1" as="geometry">
            <mxPoint x="670" y="630" as="targetPoint" />
            <mxPoint x="890" y="820" as="sourcePoint" />
            <Array as="points">
              <mxPoint x="670" y="820" />
            </Array>
          </mxGeometry>
        </mxCell>
        <mxCell id="WhKH9Ss32SUy4Tv57kXH-28" value="&lt;div style=&quot;&quot;&gt;&lt;span style=&quot;background-color: initial;&quot;&gt;HAproxy Load Balancer Server with IP address of foobar.com&lt;/span&gt;&lt;/div&gt;" style="text;strokeColor=none;align=left;fillColor=none;html=1;verticalAlign=middle;whiteSpace=wrap;rounded=0;" parent="1" vertex="1">
          <mxGeometry x="620" y="577.8" width="145" height="51.5" as="geometry" />
        </mxCell>
        <mxCell id="Q_G56gTpWqVw9_ESk6AP-11" value="" style="outlineConnect=0;dashed=0;verticalLabelPosition=bottom;verticalAlign=top;align=center;html=1;shape=mxgraph.aws3.ssl_padlock;fillColor=#3333FF;gradientColor=none;" parent="1" vertex="1">
          <mxGeometry x="319" y="482.14" width="84" height="101.86" as="geometry" />
        </mxCell>
        <mxCell id="Q_G56gTpWqVw9_ESk6AP-13" value="SSL Certificate" style="text;strokeColor=none;align=center;fillColor=none;html=1;verticalAlign=middle;whiteSpace=wrap;rounded=0;" parent="1" vertex="1">
          <mxGeometry x="311" y="592.8" width="100" height="25" as="geometry" />
        </mxCell>
        <mxCell id="Q_G56gTpWqVw9_ESk6AP-14" value="Firewall" style="text;strokeColor=none;align=center;fillColor=none;html=1;verticalAlign=middle;whiteSpace=wrap;rounded=0;" parent="1" vertex="1">
          <mxGeometry x="470" y="592.8" width="100" height="25" as="geometry" />
        </mxCell>
        <mxCell id="Q_G56gTpWqVw9_ESk6AP-16" value="" style="sketch=0;points=[[0,0,0],[0.25,0,0],[0.5,0,0],[0.75,0,0],[1,0,0],[0,1,0],[0.25,1,0],[0.5,1,0],[0.75,1,0],[1,1,0],[0,0.25,0],[0,0.5,0],[0,0.75,0],[1,0.25,0],[1,0.5,0],[1,0.75,0]];outlineConnect=0;fontColor=#232F3E;fillColor=#0000CC;strokeColor=#ffffff;dashed=0;verticalLabelPosition=bottom;verticalAlign=top;align=center;html=1;fontSize=12;fontStyle=0;aspect=fixed;shape=mxgraph.aws4.resourceIcon;resIcon=mxgraph.aws4.network_firewall;" parent="1" vertex="1">
          <mxGeometry x="466" y="479.07" width="108" height="108" as="geometry" />
        </mxCell>
        <mxCell id="Q_G56gTpWqVw9_ESk6AP-17" value="" style="sketch=0;points=[[0,0,0],[0.25,0,0],[0.5,0,0],[0.75,0,0],[1,0,0],[0,1,0],[0.25,1,0],[0.5,1,0],[0.75,1,0],[1,1,0],[0,0.25,0],[0,0.5,0],[0,0.75,0],[1,0.25,0],[1,0.5,0],[1,0.75,0]];outlineConnect=0;fontColor=#232F3E;fillColor=#0000CC;strokeColor=#ffffff;dashed=0;verticalLabelPosition=bottom;verticalAlign=top;align=center;html=1;fontSize=12;fontStyle=0;aspect=fixed;shape=mxgraph.aws4.resourceIcon;resIcon=mxgraph.aws4.network_firewall;" parent="1" vertex="1">
          <mxGeometry x="700" y="205" width="108" height="108" as="geometry" />
        </mxCell>
        <mxCell id="Q_G56gTpWqVw9_ESk6AP-18" value="" style="sketch=0;points=[[0,0,0],[0.25,0,0],[0.5,0,0],[0.75,0,0],[1,0,0],[0,1,0],[0.25,1,0],[0.5,1,0],[0.75,1,0],[1,1,0],[0,0.25,0],[0,0.5,0],[0,0.75,0],[1,0.25,0],[1,0.5,0],[1,0.75,0]];outlineConnect=0;fontColor=#232F3E;fillColor=#0000CC;strokeColor=#ffffff;dashed=0;verticalLabelPosition=bottom;verticalAlign=top;align=center;html=1;fontSize=12;fontStyle=0;aspect=fixed;shape=mxgraph.aws4.resourceIcon;resIcon=mxgraph.aws4.network_firewall;" parent="1" vertex="1">
          <mxGeometry x="710" y="743.86" width="108" height="108" as="geometry" />
        </mxCell>
        <mxCell id="Q_G56gTpWqVw9_ESk6AP-19" value="Firewall" style="text;strokeColor=none;align=center;fillColor=none;html=1;verticalAlign=middle;whiteSpace=wrap;rounded=0;" parent="1" vertex="1">
          <mxGeometry x="704" y="312.99999999999994" width="100" height="25" as="geometry" />
        </mxCell>
        <mxCell id="Q_G56gTpWqVw9_ESk6AP-20" value="Firewall" style="text;strokeColor=none;align=center;fillColor=none;html=1;verticalAlign=middle;whiteSpace=wrap;rounded=0;" parent="1" vertex="1">
          <mxGeometry x="714" y="851.8599999999999" width="100" height="25" as="geometry" />
        </mxCell>
        <mxCell id="YbH-L_zn-IKvUqhJYya7-2" value="" style="image;aspect=fixed;html=1;points=[];align=center;fontSize=12;image=img/lib/azure2/management_governance/Monitor.svg;" vertex="1" parent="1">
          <mxGeometry x="800" y="496" width="64" height="64" as="geometry" />
        </mxCell>
        <mxCell id="YbH-L_zn-IKvUqhJYya7-6" value="Monitoring client" style="text;strokeColor=none;align=center;fillColor=none;html=1;verticalAlign=middle;whiteSpace=wrap;rounded=0;" vertex="1" parent="1">
          <mxGeometry x="800" y="567.0699999999999" width="70" height="20" as="geometry" />
        </mxCell>
        <mxCell id="YbH-L_zn-IKvUqhJYya7-10" style="edgeStyle=none;rounded=0;orthogonalLoop=1;jettySize=auto;html=1;" edge="1" parent="1">
          <mxGeometry relative="1" as="geometry">
            <mxPoint x="790" y="531" as="targetPoint" />
            <mxPoint x="729" y="530.91" as="sourcePoint" />
          </mxGeometry>
        </mxCell>
        <mxCell id="YbH-L_zn-IKvUqhJYya7-11" style="edgeStyle=none;rounded=0;orthogonalLoop=1;jettySize=auto;html=1;" edge="1" parent="1">
          <mxGeometry relative="1" as="geometry">
            <mxPoint x="1260" y="531" as="targetPoint" />
            <mxPoint x="870" y="530.8499999999999" as="sourcePoint" />
          </mxGeometry>
        </mxCell>
        <mxCell id="YbH-L_zn-IKvUqhJYya7-12" style="edgeStyle=none;rounded=0;orthogonalLoop=1;jettySize=auto;html=1;" edge="1" parent="1">
          <mxGeometry relative="1" as="geometry">
            <mxPoint x="1330" y="470" as="targetPoint" />
            <mxPoint x="1190" y="429.9999999999999" as="sourcePoint" />
            <Array as="points">
              <mxPoint x="1330" y="430" />
            </Array>
          </mxGeometry>
        </mxCell>
        <mxCell id="YbH-L_zn-IKvUqhJYya7-13" style="edgeStyle=none;rounded=0;orthogonalLoop=1;jettySize=auto;html=1;" edge="1" parent="1">
          <mxGeometry relative="1" as="geometry">
            <mxPoint x="1330" y="640" as="targetPoint" />
            <mxPoint x="1186" y="959.9999999999999" as="sourcePoint" />
            <Array as="points">
              <mxPoint x="1330" y="960" />
            </Array>
          </mxGeometry>
        </mxCell>
        <mxCell id="YbH-L_zn-IKvUqhJYya7-14" value="" style="verticalLabelPosition=bottom;html=1;verticalAlign=top;align=center;strokeColor=none;fillColor=#00BEF2;shape=mxgraph.azure.computer;pointerEvents=1;" vertex="1" parent="1">
          <mxGeometry x="1274" y="482.5" width="110" height="101.5" as="geometry" />
        </mxCell>
        <mxCell id="YbH-L_zn-IKvUqhJYya7-15" value="Sumologic Monitoring Service" style="text;strokeColor=none;align=center;fillColor=none;html=1;verticalAlign=middle;whiteSpace=wrap;rounded=0;" vertex="1" parent="1">
          <mxGeometry x="1253" y="592.8" width="150" height="27.2" as="geometry" />
        </mxCell>
      </root>
    </mxGraphModel>
  </diagram>
</mxfile>
